# xmcd
#
# Track frame offsets:
#  150
#  18242
#  35894
#  53409
#  71886
#  93695
#  103622
#  123617
#  137631
#  152486
#  169761
#  189702
#  209112
#  226710
#  241554
#  261479
#  283780
#
# Disc length: 4082 seconds
#
# Revision: 0
# Processed by: cddbd v1.4PL0 Copyright (c) Steve Scherf et al.
# Submitted via: AltoMP3_Maker 3.0
#
DISCID=f70ff011
DTITLE=许志安 - 重新做人
DYEAR=1900
DGENRE=
TTITLE0=重新做人
TTITLE1=讨你厌
TTITLE2=朋友二号
TTITLE3=我发誓以后
TTITLE4=你爱我
TTITLE5=假如让我说下去
TTITLE6=汽球
TTITLE7=交换温柔
TTITLE8=苦口良药
TTITLE9=世纪末烟花
TTITLE10=昨迟人
TTITLE11=让爱
TTITLE12=受不了
TTITLE13=烂泥
TTITLE14=我还能爱谁
TTITLE15=失恋河
TTITLE16=为什么你背着我爱别人
EXTD=
EXTT0=
EXTT1=
EXTT2=
EXTT3=
EXTT4=
EXTT5=
EXTT6=
EXTT7=
EXTT8=
EXTT9=
EXTT10=
EXTT11=
EXTT12=
EXTT13=
EXTT14=
EXTT15=
EXTT16=
PLAYORDER=
